<svg width="1200" height="1200" viewBox="0 0 1200 1200" fill="none" xmlns="http://www.w3.org/2000/svg">
<g clip-path="url(#clip0_2005_252)">
<path d="M319.286 739.371V600.334C319.286 597.014 320.604 593.824 322.949 591.478L455.174 461.962C457.518 459.616 460.707 458.297 464.025 458.297L529.776 458.624L529.767 528.897L410.151 530.182C406.833 530.182 403.644 531.502 401.299 533.847L393.077 543.85C390.733 546.196 389.415 549.387 389.415 552.707V739.371H319.286Z" fill="#000000"/>
<path d="M915.697 458.616L916.386 594.997C916.386 598.342 917.714 601.559 920.084 603.931L1051.76 735.68C1054.13 738.052 1057.33 739.38 1060.69 739.38L1126.24 739.457L1126.32 669.469L1005.48 669.21C1002.14 669.21 998.926 667.882 996.556 665.511L989.626 658.966C987.256 656.594 985.929 653.386 985.929 650.032L985.671 598.679L1125.43 601.55V528.026H1060.25C1056.9 528.026 1053.69 529.355 1051.32 531.726L1008.16 577.836C1005.79 580.207 1002.58 581.535 999.228 581.535H998.435C991.462 581.535 985.817 575.878 985.817 568.91L985.869 458.625H915.697V458.616Z" fill="#000000"/>
<path d="M530.552 739.311V607C530.552 603.654 531.88 600.438 534.25 598.066L669.578 462.669C671.948 460.297 675.154 458.969 678.506 458.969H740.543V525.689L803.673 462.522C806.043 460.151 809.249 458.823 812.602 458.823H880.344V739.897H810.74L810.439 528.785H759.219C755.875 528.785 752.66 530.113 750.29 532.485L743.688 539.884C741.318 542.255 740.293 547.352 740.293 550.698L740.275 739.716L669.474 739.897L670.103 528.889H622.684C619.34 528.889 616.126 530.217 613.755 532.588L603.611 543.299C601.241 545.67 599.914 548.878 599.914 552.233L599.837 739.38L530.552 739.311Z" fill="#000000"/>
<path d="M284.245 739.319C284.271 693.692 284.219 647.669 284.245 602.042C284.245 598.73 282.926 595.557 280.591 593.211L145.857 461.867C143.522 459.53 140.341 458.211 137.032 458.211L73.6943 458.616L74.4959 528.475H190.019C193.328 528.475 196.5 529.794 198.844 532.131L211.151 544.014C213.495 546.36 214.805 549.533 214.805 552.845L214.823 739.431C237.11 739.371 261.957 739.38 284.245 739.319Z" fill="#000000"/>
<path d="M214.821 598.998V669.219L144.606 739.277L73.6841 739.121V599.007L214.821 598.998Z" fill="#000000"/>
</g>
<defs>
<clipPath id="clip0_2005_252">
<rect width="1052.63" height="281.678" fill="white" transform="translate(73.6841 458.211)"/>
</clipPath>
</defs>
</svg>
